<svg viewBox="0 0 1000 618" xmlns="http://www.w3.org/2000/svg">
  <path d="M1000,618 L1000,0 L0,0 L0,618 L1000,618 z M618,0 L618,618 M618,382 L0,382 M236,382 L236,0 M236,146 L618,146 M472,146 L472,382 M472,292 L236,292 M326,292 L326,146" stroke="currentColor" fill="none" stroke-width="2"/>
  <path d="M0,618 C0,276.6 276.6,0 618,0 C828.9,0 1000,171.1 1000,382 C1000,512.4 894.4,618 764,618 C683.4,618 618,552.6 618,472 C618,422.2 658.2,382 708,382 C738.8,382 764,407.2 764,438 C764,457.1 748.5,472 729.4,472" stroke="currentColor" fill="none" stroke-width="2"/>
</svg>
